HIERARCHY
ROOT Hips
{
	OFFSET 0.000000 0.000000 0.000000
	CHANNELS 6 Xposition Yposition Zposition Zrotation Yrotation Xrotation 
	JOINT LHipJoint
	{
		OFFSET 0.000000 0.000000 0.000000
		CHANNELS 3 Zrotation Yrotation Xrotation
		JOINT LeftUpLeg
		{
			OFFSET 8.178360 -10.767780 5.035740
			CHANNELS 3 Zrotation Yrotation Xrotation
			JOINT LeftLeg
			{
				OFFSET 14.688660 -40.356780 0.000000
				CHANNELS 3 Zrotation Yrotation Xrotation
				JOINT LeftFoot
				{
					OFFSET 15.373200 -42.237540 0.000000
					CHANNELS 3 Zrotation Yrotation Xrotation
					JOINT LeftToeBase
					{
						OFFSET 0.945840 -2.598660 13.935300
						CHANNELS 3 Zrotation Yrotation Xrotation
						End Site
						{
							OFFSET 0.000000 0.000000 0.000000
						}
					}
				}
			}
		}
	}
	JOINT RHipJoint
	{
		OFFSET 0.000000 0.000000 0.000000
		CHANNELS 3 Zrotation Yrotation Xrotation
		JOINT RightUpLeg
		{
			OFFSET -7.833120 -10.767780 5.035740
			CHANNELS 3 Zrotation Yrotation Xrotation
			JOINT RightLeg
			{
				OFFSET -15.255180 -41.913300 0.000000
				CHANNELS 3 Zrotation Yrotation Xrotation
				JOINT RightFoot
				{
					OFFSET -15.409560 -42.337380 0.000000
					CHANNELS 3 Zrotation Yrotation Xrotation
					JOINT RightToeBase
					{
						OFFSET -0.988380 -2.715540 14.178900
						CHANNELS 3 Zrotation Yrotation Xrotation
						End Site
						{
							OFFSET 0.000000 0.000000 0.000000
						}
					}
				}
			}
		}
	}
	JOINT LowerBack
	{
		OFFSET 0.000000 0.000000 0.000000
		CHANNELS 3 Zrotation Yrotation Xrotation
		JOINT Spine
		{
			OFFSET 0.169620 12.213540 -1.160280
			CHANNELS 3 Zrotation Yrotation Xrotation
			JOINT Spine1
			{
				OFFSET 0.340320 12.293100 -0.256500
				CHANNELS 3 Zrotation Yrotation Xrotation
				JOINT Neck
				{
					OFFSET 0.000000 0.000000 0.000000
					CHANNELS 3 Zrotation Yrotation Xrotation
					JOINT Neck1
					{
						OFFSET -0.325020 10.477440 1.032120
						CHANNELS 3 Zrotation Yrotation Xrotation
						JOINT Head
						{
							OFFSET 0.624420 10.568160 -0.743820
							CHANNELS 3 Zrotation Yrotation Xrotation
							End Site
							{
								OFFSET 0.000000 0.000000 0.000000
							}
						}
					}
				}
				JOINT LeftShoulder
				{
					OFFSET 0.000000 0.000000 0.000000
					CHANNELS 3 Zrotation Yrotation Xrotation
					JOINT LeftArm
					{
						OFFSET 20.174460 7.205340 -1.867260
						CHANNELS 3 Zrotation Yrotation Xrotation
						JOINT LeftForeArm
						{
							OFFSET 29.898000 -0.000000 -0.000000
							CHANNELS 3 Zrotation Yrotation Xrotation
							JOINT LeftHand
							{
								OFFSET 20.901360 -0.000000 -0.000000
								CHANNELS 3 Zrotation Yrotation Xrotation
								JOINT LeftFingerBase
								{
									OFFSET 0.000000 0.000000 0.000000
									CHANNELS 3 Zrotation Yrotation Xrotation
									JOINT LeftHandIndex1
									{
										OFFSET 4.291560 -0.000000 -0.000000
										CHANNELS 3 Zrotation Yrotation Xrotation
										End Site
										{
											OFFSET 0.000000 0.000000 0.000000
										}
									}
								}
								JOINT LThumb
								{
									OFFSET 0.000000 0.000000 0.000000
									CHANNELS 3 Zrotation Yrotation Xrotation
									End Site
									{
										OFFSET 0.000000 0.000000 0.000000
									}
								}
							}
						}
					}
				}
				JOINT RightShoulder
				{
					OFFSET 0.000000 0.000000 0.000000
					CHANNELS 3 Zrotation Yrotation Xrotation
					JOINT RightArm
					{
						OFFSET -18.819600 8.244300 -2.427900
						CHANNELS 3 Zrotation Yrotation Xrotation
						JOINT RightForeArm
						{
							OFFSET -31.451400 -0.000000 -0.000000
							CHANNELS 3 Zrotation Yrotation Xrotation
							JOINT RightHand
							{
								OFFSET -20.665020 -0.000000 -0.000000
								CHANNELS 3 Zrotation Yrotation Xrotation
								JOINT RightFingerBase
								{
									OFFSET 0.000000 0.000000 0.000000
									CHANNELS 3 Zrotation Yrotation Xrotation
									JOINT RightHandIndex1
									{
										OFFSET -3.735180 -0.000000 -0.000000
										CHANNELS 3 Zrotation Yrotation Xrotation
										End Site
										{
											OFFSET 0.000000 0.000000 0.000000
										}
									}
								}
								JOINT RThumb
								{
									OFFSET 0.000000 0.000000 0.000000
									CHANNELS 3 Zrotation Yrotation Xrotation
									End Site
									{
										OFFSET 0.000000 0.000000 0.000000
									}
								}
							}
						}
					}
				}
			}
		}
	}
}
MOTION
Frames:	4
Frame Time:	0.0333333
-82.061106 107.665974 77.919510 3.234229 5.755198 1.423903 -1.528902 2.201975 2.620971 -5.246812 -7.227617 -7.872573 -0.226940 6.109013 18.133572 -1.253990 9.044377 3.807631 0.015200 -0.795600 -2.186600 -0.130184 -1.747995 0.997179 16.286710 1.670942 -6.202092 -1.544108 -7.960745 23.948934 0.134528 -2.915980 -8.062298 -0.072600 1.738700 -4.784200 3.904100 0.055982 5.681021 2.351215 0.468036 1.568266 -1.303683 0.179300 -3.876286 -11.514822 -2.497705 -19.392560 0.587361 -0.308194 22.558948 2.584000 -1.686500 14.606700 -6.304208 -1.244739 -1.492652 -85.821557 0.964505 19.945234 16.066419 -22.420396 -3.668013 -1.142235 -1.802373 6.082607 20.006581 18.422141 7.583600 -7.125000 0.000000 0.000000 -7.637400 51.468000 -1.222700 5.222710 0.809878 -1.142037 79.515098 -0.726824 10.970457 -14.626353 21.553033 -2.797860 0.278413 -0.215437 10.535582 -14.795548 9.215774 -2.516500 7.125000 0.000000 0.000000 8.466400 -20.331200 5.052100 
-80.770062 107.603328 77.958882 3.125377 6.456028 1.088282 -1.484575 2.273704 2.641865 -4.652556 -8.029192 -7.191003 -0.269902 5.947180 17.587588 -1.368906 10.329848 5.829925 0.000000 0.019400 0.053400 -0.146416 -1.782850 1.002519 15.797484 1.901619 -5.404043 -1.497312 -7.904117 23.732372 0.337180 -4.086005 -8.384082 -0.124600 2.275100 -6.266600 3.818404 0.089414 5.987910 2.327220 0.523924 1.596523 -1.293642 0.209162 -4.006639 -11.199281 -2.235289 -19.316562 0.347151 -0.027348 22.652604 2.474600 -1.569800 14.598200 -6.277779 -1.267438 -1.492579 -85.458470 1.239599 20.002662 16.162521 -22.594664 -3.708756 -1.046535 -2.081295 5.962942 18.425748 22.208134 8.210400 -7.125000 0.000000 0.000000 -10.908100 55.294800 -2.781100 5.218995 0.775654 -1.147617 78.957950 -0.769164 12.627532 -14.497585 21.347316 -2.746239 0.301231 -0.208845 8.906110 -15.291232 9.174894 -2.594300 7.125000 0.000000 0.000000 8.101500 -20.348100 4.826700 
-79.306008 107.458950 77.983938 2.893924 7.018676 0.851162 -1.442760 2.328454 2.647421 -4.183859 -8.545303 -6.748936 -0.259636 5.908736 17.390909 -1.406173 11.403536 8.019451 0.012700 0.728500 2.002100 -0.166636 -1.806448 1.003888 15.252558 1.899348 -4.959937 -1.500276 -7.936816 23.796877 0.452048 -4.739585 -8.573981 -0.157800 2.559400 -7.054500 3.788662 0.095176 6.046546 2.393406 0.532207 1.742321 -1.170431 0.212574 -3.819930 -11.292761 -2.047333 -19.486071 0.498325 0.283210 22.613019 2.608000 -1.429500 14.590100 -6.260122 -1.268654 -1.489036 -85.310637 1.189639 20.062832 16.293428 -22.791969 -3.776449 -1.009641 -2.117214 5.267178 18.246965 22.467606 8.210200 -7.125000 0.000000 0.000000 -11.236000 55.540400 -2.933600 5.218131 0.772320 -1.140724 78.469808 -0.526310 12.959606 -14.646275 21.569963 -2.808446 0.291689 -0.177994 8.900799 -14.732742 8.235097 -2.238000 7.125000 0.000000 0.000000 8.538100 -21.367100 4.894000 
-77.630160 107.246562 78.037038 2.724205 7.378745 0.470396 -1.420859 2.406801 2.686082 -4.064396 -9.459098 -5.662047 -0.304622 5.758208 16.917266 -1.400909 12.163007 9.608452 0.033000 1.172800 3.224500 -0.183549 -1.832949 1.000592 14.523923 2.015781 -4.463002 -1.585820 -8.151757 24.399473 0.506423 -5.119486 -8.941106 -0.246600 3.195200 -8.822700 3.750077 0.175120 6.056954 2.374808 0.634808 1.935616 -1.188861 0.267683 -3.533085 -10.998926 -1.844808 -19.771231 0.299400 0.531402 22.795300 2.511900 -1.326700 14.703200 -6.234627 -1.295144 -1.480741 -85.113703 1.176937 20.101237 16.467487 -23.053380 -3.870230 -1.020460 -2.055967 5.036551 18.714040 21.593467 8.138600 -7.125000 0.000000 0.000000 -10.311500 54.692400 -2.474800 5.220432 0.735980 -1.137896 78.095058 -0.170162 13.324317 -14.600265 21.514744 -2.788282 0.312910 -0.210060 8.409264 -15.635503 9.367229 -2.710800 7.125000 0.000000 0.000000 7.844500 -20.129600 4.709600 
